<?xml version="1.0" encoding="UTF-8" standalone="no"?>
<svg
   viewBox="0 0 6679.6273 8471.2812"
   version="1.1"
   id="svg37"
   width="445.3085"
   height="564.75208"
   xmlns="http://www.w3.org/2000/svg"
   xmlns:svg="http://www.w3.org/2000/svg">
  <defs
     id="defs41" />
  <path
     d="M 1.47664,2301.045 C 1613.2264,307.58893 3471.5747,-772.56883 4864.7823,998.65373 6466.9344,1082.8219 7153.5715,3514.8383 6051.2602,4714.6034 c 76.9896,-3.323 153.4656,14.011 221.4965,50.2054 l 11.0745,6.645 c 82.6594,49.4374 143.1826,128.7251 169.0757,221.495 33.3946,134.0064 28.5341,274.692 -14.029,406.0748 l -5.1686,16.2427 c -19.9334,59.0654 -37.6536,134.3736 -55.3733,212.6357 -73.8326,319.691 -155.0477,671.8684 -516.8227,652.6718 -19.585,-0.709 -39.085,-2.9328 -58.3277,-6.6446 -14.027,664.4851 -338.1504,967.9329 -761.9448,1366.6252 l -163.1688,154.309 c -428.9633,413.4558 -898.5339,614.279 -1375.4878,615.0174 -476.9541,0.7384 -977.5341,-208.944 -1427.9085,-610.5884 L 1915.1989,7657.5359 C 1499.5255,7300.1898 1152.5155,7001.1714 1086.8052,6272.4522 h -38.3925 c -85.64403,0.072 -169.84403,-22.0589 -244.38363,-64.2331 -170.5516,-96.72 -262.8416,-281.2992 -307.879,-491.7197 -45.9691,-259.32 -49.4602,-524.3899 -10.3365,-784.8307 1.6229,-12.9015 4.8472,-25.5504 9.5983,-37.6543 59.8038,-166.8596 135.1124,-256.9344 228.8788,-295.3267 C 681.46817,3803.52 815.84217,2544.6895 0,2298.0917 Z M 4652.885,2489.3159 c -301.5744,307.5526 -708.2317,489.7829 -1138.4879,510.1769 -112.2241,19.9346 -221.4955,33.2244 -330.7665,46.514 -365.4679,45.0374 -730.1975,90.0745 -1213.7962,424.5323 -211.2427,135.1374 -373.3145,334.7496 -462.1874,569.2425 -81.2275,256.3143 -88.9016,530.2783 -22.1495,790.7376 34.7628,125.4092 -86.5821,237.7488 -208.9443,193.4391 l -184.5797,-67.9253 c -151.35543,-52.4203 -245.86023,-73.8315 -290.89763,37.6541 -31.5653,218.1408 -28.5752,439.8921 8.8597,657.1022 28.0562,128.4672 73.8319,236.2613 152.832,280.5605 27.7627,15.4042 59.06593,23.2939 90.81323,22.8883 44.3946,-0.4752 88.4592,-7.6896 130.6823,-21.4118 15.4791,-5.2786 31.6474,-8.2637 47.9908,-8.8594 87.9274,-1.6541 160.7526,67.8754 163.1684,155.785 16.9815,723.5505 338.15,1000.4193 728.7208,1336.3541 l 163.1686,141.7569 c 392.047,349.224 804.7672,529.3728 1209.3658,529.3728 404.5988,0 787.048,-172.0277 1153.9924,-526.4198 l 163.1685,-154.3085 c 409.7674,-385.4016 711.7387,-668.9155 653.412,-1359.2414 -2.4806,-35.9516 6.8587,-71.7284 26.5791,-101.8882 48.8572,-73.4088 147.851,-93.5371 221.496,-45.0374 26.5483,18.348 55.3286,33.2347 85.6449,44.2992 22.008,8.4945 45.1407,13.7188 68.6645,15.5044 97.4578,5.1682 147.6634,-209.6817 191.963,-405.3355 17.3204,-82.5528 39.0082,-164.1283 64.9714,-244.3829 24.1805,-71.2598 29.5224,-147.562 15.505,-221.4955 -3.3226,-14.8915 -11.6621,-28.187 -23.6271,-37.6541 h -4.4294 c -25.5562,-11.0313 -53.7106,-14.6145 -81.2151,-10.3363 -99.6652,15.2136 -193.4611,56.7595 -271.7016,120.3456 -118.2859,89.2272 -283.703,-17.0088 -251.7657,-161.6913 147.6629,-878.5976 81.9528,-1451.5316 -105.5803,-1841.3629 -163.9061,-342.5791 -425.2714,-549.3079 -708.7858,-704.3546 l -45.7758,34.701 z M 1664.9088,4587.6127 c -1936.85632,-3121.6043 -968.42813,-1560.8021 0,0 z m 436.3464,207.4673 c -38.7969,13.3053 -80.5293,-10.1473 -89.3366,-50.2056 -13.7474,-40.1078 5.0678,-84.1148 43.5608,-101.8876 275.2139,-106.9396 580.4976,-106.9396 855.7115,0 38.8832,16.6433 58.7139,60.1432 45.7757,100.411 -7.7471,40.1707 -48.9853,64.4288 -87.8599,51.6822 -46.158,-16.7281 -93.2424,-30.7795 -141.019,-42.0841 4.6736,17.3413 7.1536,35.2003 7.3834,53.1587 -15.1829,248.6715 -381.2941,248.6715 -396.4772,0 0.048,-25.3382 5.0746,-50.4202 14.7664,-73.8315 -86.5734,10.9126 -171.4164,32.7435 -252.5051,64.9718 z m 2158.1058,-59.8036 c -8.9443,23.5806 -13.4503,48.6121 -13.2898,73.8316 15.1831,248.6716 381.2943,248.6716 396.4771,0 0.1632,-30.5102 -6.9238,-60.6227 -20.6728,-87.8596 88.9316,9.7872 176.5552,29.094 261.3647,57.5886 39.804,11.6386 80.7619,-14.3939 87.1219,-55.3738 11.496,-40.5785 -9.0998,-83.3545 -47.9909,-99.6729 -138.184,-45.5909 -282.7149,-69.0146 -428.2249,-69.4016 -143.8408,1.5925 -286.4692,26.5272 -422.3184,73.8317 -38.9405,16.3025 -59.7804,58.9296 -48.729,99.6726 9.4984,38.7672 48.087,62.9667 87.1218,54.6355 48.3678,-16.4669 97.6768,-30.0269 147.6635,-40.6073 z"
     id="path126"
     style="fill:#808080;stroke-width:73.8317" />
</svg>
